<?xml version="1.0" standalone="no"?>
<!DOCTYPE svg PUBLIC "-//W3C//DTD SVG 20010904//EN"
 "http://www.w3.org/TR/2001/REC-SVG-20010904/DTD/svg10.dtd">
<svg version="1.0" xmlns="http://www.w3.org/2000/svg"
 width="512.000000pt" height="512.000000pt" viewBox="0 0 512.000000 512.000000"
 preserveAspectRatio="xMidYMid meet">
<metadata>
Created by potrace 1.11, written by Peter Selinger 2001-2013
</metadata>
<g transform="translate(0.000000,512.000000) scale(0.100000,-0.100000)"
fill="#000000" stroke="none">
<path d="M2443 5106 c-86 -21 -164 -66 -233 -136 l-65 -65 -75 38 c-256 128
-567 7 -677 -263 -12 -30 -26 -55 -30 -55 -4 1 -38 5 -75 9 -81 10 -196 -11
-276 -50 -111 -54 -217 -181 -253 -301 -7 -24 -20 -45 -30 -48 -58 -19 -94
-89 -71 -140 21 -46 55 -59 156 -56 122 3 221 -19 326 -70 189 -93 365 -340
320 -450 -23 -54 -109 -78 -158 -43 -12 8 -38 49 -58 90 -45 96 -119 171 -211
215 -58 28 -82 34 -159 37 -76 4 -104 0 -158 -18 -115 -38 -203 -118 -258
-236 l-33 -69 -3 -342 c-3 -289 -1 -353 13 -405 54 -212 266 -354 477 -319
151 25 262 108 329 248 44 89 71 113 128 113 45 0 91 -45 97 -95 5 -34 -2 -55
-41 -133 -75 -150 -195 -256 -363 -320 -61 -24 -80 -26 -212 -26 -132 0 -151
2 -212 26 -207 79 -356 240 -415 448 -16 57 -18 107 -18 415 0 193 4 380 9
416 8 65 7 67 -22 100 -58 65 -147 37 -175 -55 -9 -30 -12 -153 -12 -446 0
-388 1 -408 22 -481 12 -42 33 -100 46 -130 l23 -53 -24 -59 c-37 -92 -47
-175 -33 -265 22 -143 100 -267 216 -344 54 -35 65 -47 60 -63 -33 -105 -37
-135 -32 -225 5 -105 26 -171 79 -248 74 -107 180 -180 307 -208 l71 -16 0
-62 c0 -125 58 -254 156 -345 108 -102 249 -150 389 -135 39 5 74 8 78 9 4 0
18 -25 30 -55 113 -278 443 -396 701 -252 l50 27 65 -65 c201 -199 503 -200
702 -1 l65 66 50 -27 c258 -144 588 -26 701 252 12 30 26 55 30 55 4 -1 40 -4
78 -9 84 -9 192 11 273 50 111 54 217 181 252 301 l13 42 261 3 c248 3 263 4
307 26 61 30 113 81 146 145 36 69 39 187 6 258 -49 107 -149 177 -268 186
l-64 6 96 101 c146 153 206 257 237 408 20 98 20 178 0 276 -17 83 -69 205
-109 258 l-25 33 36 51 c162 225 101 549 -131 702 -54 35 -65 47 -60 63 33
105 37 135 32 225 -5 105 -26 171 -79 248 -74 107 -180 180 -307 208 l-71 16
0 62 c0 170 -116 354 -272 430 -80 39 -195 60 -276 50 -37 -4 -71 -8 -75 -9
-4 0 -18 25 -30 55 -110 270 -422 391 -677 263 l-75 -38 -65 66 c-124 125
-299 175 -467 135z m246 -218 c63 -30 113 -85 149 -161 39 -82 75 -105 132
-88 22 6 49 26 68 50 18 23 57 52 93 70 152 76 324 17 403 -138 10 -18 21 -69
26 -113 13 -133 66 -164 184 -108 247 119 501 -97 421 -360 -20 -68 -15 -102
21 -135 24 -22 33 -24 127 -22 85 2 109 -1 148 -19 63 -30 116 -79 147 -138
23 -44 27 -63 27 -136 0 -74 -4 -92 -28 -135 -15 -27 -37 -62 -49 -78 -46 -58
-19 -138 54 -158 168 -45 250 -124 273 -266 8 -51 -15 -148 -47 -196 l-22 -34
-55 33 c-289 171 -679 101 -892 -160 -55 -67 -121 -195 -140 -269 -46 -187 92
-372 286 -385 138 -8 252 66 309 200 21 49 36 70 55 78 51 21 104 -16 104 -71
0 -26 -48 -78 -371 -402 -419 -420 -424 -427 -424 -557 0 -123 64 -224 174
-280 58 -28 68 -30 180 -30 65 0 118 -4 118 -8 0 -4 -13 -29 -29 -54 -55 -86
-140 -130 -253 -131 -54 0 -78 6 -132 32 -80 38 -107 39 -147 3 -28 -25 -32
-36 -39 -109 -13 -126 -62 -202 -162 -252 -51 -26 -73 -31 -133 -31 -60 0 -82
5 -134 31 -36 18 -75 47 -93 70 -43 53 -94 69 -139 43 -34 -20 -35 -22 -70
-98 -28 -62 -81 -115 -144 -146 -71 -34 -180 -34 -249 -1 -68 34 -122 91 -156
166 -21 47 -37 68 -61 80 -45 24 -95 8 -137 -44 -18 -23 -57 -52 -93 -70 -152
-76 -324 -17 -403 138 -10 18 -21 70 -26 114 -7 73 -11 84 -39 109 -40 36 -67
35 -147 -3 -245 -118 -498 100 -419 361 20 68 15 102 -21 135 -24 22 -33 24
-127 22 -85 -2 -109 1 -148 19 -63 30 -116 79 -147 138 -23 44 -27 63 -27 136
0 74 4 92 28 135 15 28 37 62 49 78 46 58 19 138 -54 158 -133 35 -209 90
-246 177 -24 56 -37 131 -27 161 6 20 10 18 62 -29 166 -152 420 -231 650
-202 221 28 408 129 552 298 149 174 207 369 149 496 -35 76 -80 123 -154 159
-59 29 -69 31 -146 27 -135 -7 -215 -64 -277 -195 -55 -116 -118 -162 -219
-163 -91 0 -161 42 -205 125 -21 38 -22 55 -25 333 -2 189 1 312 8 345 15 70
50 120 107 154 86 51 214 33 279 -39 12 -12 38 -57 58 -99 62 -132 152 -193
286 -193 99 -1 163 27 229 100 116 127 108 291 -25 496 -120 187 -303 317
-515 368 -45 10 -84 21 -86 24 -3 3 6 25 21 50 77 132 245 177 392 106 118
-56 171 -25 184 108 13 127 61 201 162 251 51 26 73 31 133 31 60 0 82 -5 134
-31 36 -18 75 -47 93 -70 68 -84 150 -72 194 28 14 30 36 70 50 89 32 41 107
90 159 103 57 14 151 5 204 -21z m1824 -2253 c146 -31 276 -133 341 -267 70
-145 69 -294 -1 -438 -32 -66 -59 -99 -240 -281 -198 -200 -203 -207 -203
-247 0 -29 7 -49 24 -69 l24 -28 194 -5 c213 -6 226 -9 254 -69 23 -47 5 -104
-39 -131 -30 -19 -53 -20 -469 -20 l-436 0 -31 26 c-32 27 -48 76 -36 116 4
12 177 194 385 403 372 374 379 381 395 439 65 224 -140 424 -358 350 -72 -24
-135 -86 -174 -172 -28 -61 -39 -75 -69 -88 -44 -19 -84 -11 -117 22 -34 33
-38 68 -18 135 49 156 197 288 365 324 80 18 127 18 209 0z"/>
<path d="M2574 4225 c-249 -54 -480 -241 -589 -479 -72 -155 -77 -197 -73
-654 l3 -407 33 -95 c106 -307 356 -521 674 -576 388 -68 783 160 931 536 49
126 57 202 57 569 0 185 -5 365 -10 401 -55 349 -313 624 -660 705 -80 18
-281 19 -366 0z m321 -200 c100 -21 219 -83 297 -154 119 -110 189 -249 208
-414 13 -110 13 -572 0 -675 -32 -252 -190 -451 -428 -540 -89 -33 -263 -42
-366 -18 -177 42 -347 177 -425 338 -68 141 -73 180 -69 593 l3 360 28 80 c36
102 83 179 153 250 157 160 378 226 599 180z"/>
<path d="M2624 3802 c-116 -40 -201 -117 -257 -232 l-32 -65 0 -380 0 -380 31
-66 c84 -176 267 -279 446 -251 185 28 329 162 367 340 18 85 15 653 -4 725
-38 147 -141 258 -283 306 -78 27 -196 28 -268 3z m251 -217 c30 -17 55 -43
75 -78 l30 -52 -2 -341 -3 -340 -28 -42 c-80 -121 -249 -138 -350 -34 -64 65
-67 87 -67 431 0 286 2 309 21 351 27 60 54 88 114 117 65 31 144 27 210 -12z"/>
<path d="M1738 1925 c-55 -31 -108 -176 -108 -295 0 -291 254 -534 541 -518
l67 4 28 -60 c79 -166 278 -270 458 -239 86 15 160 50 221 105 45 41 50 50 50
88 0 35 -6 47 -33 71 -46 41 -83 38 -153 -11 -33 -23 -78 -44 -108 -51 -99
-21 -214 37 -256 131 l-18 41 24 16 c13 9 39 31 57 49 68 67 28 174 -65 174
-33 0 -50 -8 -89 -40 -164 -135 -403 -82 -493 110 -36 78 -35 180 3 269 18 43
25 72 21 91 -13 61 -92 96 -147 65z"/>
<path d="M3153 1406 c-40 -34 -49 -74 -28 -119 45 -95 185 -63 185 42 0 54
-32 90 -86 98 -33 4 -45 1 -71 -21z"/>
<path d="M303 4035 c-37 -16 -55 -45 -55 -90 0 -112 151 -138 191 -32 13 34
12 42 -3 73 -10 23 -29 40 -51 50 -41 17 -42 17 -82 -1z"/>
</g>
</svg>
